PathFileType	4	(X/Y/Z)	C:/Users/opensim2020/Desktop/walking_exp_matlab/subject06_walking13_straight_01.trc																																																																																																																																																				
DataRate	CameraRate	NumFrames	NumMarkers	Units	OrigDataRate	OrigDataStartFrame	OrigNumFrames																																																																																																																																																
100	100	4	50	mm	100	849	163																																																																																																																																																
Frame#	Time	LFHD			RFHD			LBHD			RBHD			C7			T10			CLAV			STRN			RBAK			LSHO			LUPA			LELB			LFRM			LWRA			LWRB			LFIN			RSHO			RUPA			RELB			RFRM			RWRA			RWRB			RFIN			LASI			RASI			LPSI			RPSI			LTHI			LKNE			LTIB			LANK			LHEE			LTOE			RTHI			RKNE			RTIB			RANK			RHEE			RTOE			*39			*40			*41			*42			*43			*44			*45			*46			*47			*48			*49		
		X1	Y1	Z1	X2	Y2	Z2	X3	Y3	Z3	X4	Y4	Z4	X5	Y5	Z5	X6	Y6	Z6	X7	Y7	Z7	X8	Y8	Z8	X9	Y9	Z9	X10	Y10	Z10	X11	Y11	Z11	X12	Y12	Z12	X13	Y13	Z13	X14	Y14	Z14	X15	Y15	Z15	X16	Y16	Z16	X17	Y17	Z17	X18	Y18	Z18	X19	Y19	Z19	X20	Y20	Z20	X21	Y21	Z21	X22	Y22	Z22	X23	Y23	Z23	X24	Y24	Z24	X25	Y25	Z25	X26	Y26	Z26	X27	Y27	Z27	X28	Y28	Z28	X29	Y29	Z29	X30	Y30	Z30	X31	Y31	Z31	X32	Y32	Z32	X33	Y33	Z33	X34	Y34	Z34	X35	Y35	Z35	X36	Y36	Z36	X37	Y37	Z37	X38	Y38	Z38	X39	Y39	Z39	X40	Y40	Z40	X41	Y41	Z41	X42	Y42	Z42	X43	Y43	Z43	X44	Y44	Z44	X45	Y45	Z45	X46	Y46	Z46	X47	Y47	Z47	X48	Y48	Z48	X49	Y49	Z49	X50	Y50	Z50
																																																																																																																																																							
1	0	-852.20789	1662.40942	-1055.99792	-863.77667	1649.26038	-926.90491	-989.46021	1614.90808	-1068.729	-997.41711	1607.20264	-939.62189	-1001.83704	1456.19995	-1007.15112	-1055.43958	1130.42151	-991.44604	-895.50513	1373.05298	-1008.46417	-864.66608	1197.03418	-1012.02496	-1078.37	1292.65442	-916.94952	-953.90851	1405.46399	-1169.21375	-982.63086	1204.276	-1238.26001	-1001.53217	1093.41809	-1249.69434	-987.64099	944.15295	-1275.0542	-927.66205	827.38696	-1239.5072	-992.19757	824.5061	-1270.99988	-951.58893	743.70355	-1277.86621	-929.5506	1410.92346	-846.56	-959.26697	1216.48279	-748.7608	-942.63635	1096.48718	-731.41986	-895.86743	986.80322	-717.54944	-800.37024	874.2666	-759.78729	-847.44598	858.61084	-714.81042	-788.90094	799.22833	-718.01935	-886.44354	963.07001	-1099.23889	-884.68646	969.87024	-882.65448	-1043.53906	991.0647	-1073.70972	-1034.94995	999.80426	-906.34808	-881.43176	658.02063	-1168.4137	-823.18262	505.22543	-1148.11072	-945.3299	282.20422	-1136.41772	-1011.60547	127.90638	-1099.28381	-1049.96985	125.53742	-1048.60815	-893.44135	49.56344	-1113.37415	-958.70453	634.88684	-836.06549	-966.67206	509.35489	-862.05206	-1038.54321	249.96907	-879.40643	-1058.6925	65.73533	-938.31354	-1096.69739	43.09089	-985.46692	-905.85089	33.20341	-934.51251	-956.2912	1705.10547	-1005.25476	NaN	NaN	NaN	NaN	NaN	NaN	NaN	NaN	NaN	NaN	NaN	NaN	NaN	NaN	NaN	NaN	NaN	NaN	NaN	NaN	NaN	NaN	NaN	NaN	NaN	NaN	NaN	NaN	NaN	NaN
2	0.01	-843.91266	1661.85693	-1056.34863	-855.40131	1648.9375	-926.95587	-980.95648	1614.17456	-1068.80457	-988.94684	1606.65369	-939.65021	-993.18231	1455.64722	-1006.97015	-1046.95581	1129.93494	-990.89429	-886.83759	1372.49304	-1008.40955	-856.164	1196.4552	-1011.20502	-1069.8302	1292.40857	-916.29895	-945.36816	1404.58411	-1168.99707	-976.86108	1203.7793	-1237.64905	-997.88458	1093.3562	-1248.90564	-987.15442	943.75	-1274.31201	-929.00751	825.96161	-1239.06396	-994.34692	824.22516	-1270.49854	-956.05377	742.34778	-1277.14783	-920.90955	1410.72961	-846.32935	-949.57642	1216.37622	-748.01404	-931.8562	1096.83374	-730.40302	-882.03314	988.60455	-717.08484	-783.48602	879.44946	-760.14832	-829.85077	862.03369	-715.31561	-769.29449	804.6983	-718.92218	-877.20978	963.00018	-1098.17932	-876.93341	969.10059	-881.49347	-1034.65747	990.56732	-1073.80994	-1027.16248	999.05573	-906.33539	-869.54956	658.77545	-1168.10229	-810.3335	506.4184	-1147.07568	-919.29352	280.9325	-1137.42761	-981.82208	120.0672	-1098.94238	-1019.7243	115.50754	-1048.22681	-860.05023	47.73455	-1113.46021	-952.94403	634.20062	-836.08929	-961.81189	508.66104	-861.92334	-1036.45593	249.96098	-879.53229	-1058.48901	65.86616	-938.53455	-1096.79492	43.50319	-985.52576	-905.95496	33.08871	-934.29144	-947.87677	1704.44702	-1005.52521	NaN	NaN	NaN	NaN	NaN	NaN	NaN	NaN	NaN	NaN	NaN	NaN	NaN	NaN	NaN	NaN	NaN	NaN	NaN	NaN	NaN	NaN	NaN	NaN	NaN	NaN	NaN	NaN	NaN	NaN
3	0.02	-835.78436	1661.40796	-1057.15137	-846.87946	1648.45569	-927.05804	-972.33771	1613.31116	-1068.92749	-980.34882	1605.95691	-939.74243	-984.49146	1455.03027	-1006.76538	-1038.36499	1129.32959	-990.43994	-878.19666	1371.77368	-1007.84448	-847.56384	1195.74634	-1010.4942	-1061.23865	1292.01501	-915.70074	-936.75751	1403.64929	-1168.82068	-970.92731	1203.35156	-1237.23828	-993.90601	1093.26965	-1248.0675	-986.39209	943.44824	-1273.56226	-930.87354	824.26379	-1238.51892	-996.36761	824.20923	-1270.06433	-960.07806	741.20898	-1276.29016	-912.2652	1410.4364	-846.09888	-939.7345	1216.18555	-747.3761	-920.92291	1097.03625	-729.53925	-868.41406	990.32971	-716.65448	-766.65723	884.59619	-760.44928	-812.50482	865.37268	-715.96002	-750.29797	810.31024	-719.84845	-868.02661	962.65979	-1097.24768	-868.97552	968.35736	-880.51648	-1025.66687	989.95526	-1073.93335	-1019.17401	998.23419	-906.43347	-856.74585	659.55225	-1168.6322	-797.98889	507.24466	-1146.09424	-897.64093	276.51855	-1136.87524	-951.64526	112.52975	-1098.69165	-989.08765	106.25407	-1047.78357	-826.15717	46.67697	-1113.11865	-947.20001	633.49713	-835.9743	-957.13586	507.93863	-861.62738	-1034.38904	249.84081	-879.58698	-1058.20313	66.04073	-938.75934	-1096.53235	43.66781	-985.82288	-905.87384	32.99523	-934.06372	-939.43164	1703.73938	-1005.82117	NaN	NaN	NaN	NaN	NaN	NaN	NaN	NaN	NaN	NaN	NaN	NaN	NaN	NaN	NaN	NaN	NaN	NaN	NaN	NaN	NaN	NaN	NaN	NaN	NaN	NaN	NaN	NaN	NaN	NaN
4	0.03	-826.83575	1660.34729	-1056.77698	-838.32928	1647.90601	-927.17474	-963.66254	1612.32483	-1069.10144	-971.72742	1605.21741	-939.88879	-975.71014	1454.29089	-1006.61975	-1029.78052	1128.59485	-990.0976	-869.42212	1370.9646	-1007.75098	-838.91907	1194.89539	-1009.84875	-1052.59045	1291.48596	-915.27026	-928.01416	1402.67834	-1168.61084	-964.58069	1202.63135	-1236.27893	-989.70026	1093.07495	-1247.16479	-985.38715	943.17242	-1272.78186	-931.90393	822.87488	-1238.29663	-997.90112	824.20898	-1269.31628	-964.06055	740.1424	-1275.43176	-903.57599	1409.99866	-845.95093	-930.03595	1215.9425	-746.70233	-910.12384	1097.20581	-728.71631	-854.98419	992.05975	-716.27454	-750.64355	889.57239	-761.349	-795.48206	868.78577	-716.52545	-731.70929	815.69666	-720.64856	-858.65411	962.28802	-1096.35889	-861.10382	967.43445	-879.47321	-1016.57697	989.23242	-1074.08936	-1011.15436	997.3924	-906.53979	-847.22266	659.16901	-1167.6842	-786.1261	507.75729	-1145.12183	-875.80414	272.09274	-1136.38379	-920.30341	105.554	-1098.22644	-957.99652	97.37579	-1047.42505	-792.58429	45.61238	-1112.81274	-941.05383	632.61597	-835.95886	-951.89966	507.2113	-861.36896	-1032.15613	249.76108	-879.67877	-1057.86621	66.2327	-939.02582	-1096.40759	44.02405	-986.0683	-905.77557	32.83694	-933.83777	-930.87158	1702.8988	-1006.18048	NaN	NaN	NaN	NaN	NaN	NaN	NaN	NaN	NaN	NaN	NaN	NaN	NaN	NaN	NaN	NaN	NaN	NaN	NaN	NaN	NaN	NaN	NaN	NaN	NaN	NaN	NaN	NaN	NaN	NaN
